<svg xmlns="http://www.w3.org/2000/svg" width="1000" height="1000" viewBox="0 0 1000 1000">
  <defs>
    <style>
      .cls-1 {
        fill-rule: evenodd;
      }
    </style>
  </defs>
  <path id="s" class="cls-1" d="M564.684,20.352a238.593,238.593,0,0,0-86.2-14.3q-44.185.894-87.5,19.927A254.827,254.827,0,0,0,313,79.7L79.942,312.757q-35.535,35.535-54.149,78.407A235.412,235.412,0,0,0,5.866,478.669a232.923,232.923,0,0,0,13.862,86.639q15.148,42.033,48.084,74.942l20.793,20.794L660.42,89.229,639.627,68.436Q606.711,35.52,564.684,20.352ZM338.991,911.429l19.927,19.927q32.935,32.936,74.942,48.084a225.37,225.37,0,0,0,86.206,13.429q44.186-1.706,87.5-19.927,43.313-18.174,78.842-53.716L919.469,686.169a246.816,246.816,0,0,0,53.283-78.408q18.64-43.738,19.927-87.5a230.691,230.691,0,0,0-13.862-85.772q-15.17-42.013-48.085-74.943l-19.927-19.926ZM605.4,240.413q43.76-18.62,87.505-19.926a228.813,228.813,0,0,1,86.206,14.3,203.5,203.5,0,0,1,74.509,47.651l20.793,20.793-402,402q-35.535,35.535-78.841,53.716-43.312,18.214-87.5,19.927a225.387,225.387,0,0,1-86.2-13.429q-42.033-15.148-74.942-48.084l-20.794-20.794L527,293.7A247.2,247.2,0,0,1,605.4,240.413Z"/>
</svg>
